<svg width="150" height="150" xmlns="http://www.w3.org/2000/svg" viewBox="0 0 252.91 253.89"><path d="M174.53,75.3c0,1.29-.37,1.93-1.12,1.93a41.08,41.08,0,0,0-9,1.86,8.15,8.15,0,0,0-4.3,3.15q-1.23,2-1.23,6.9v62a59.1,59.1,0,0,1-5.7,25.25A52.9,52.9,0,0,1,138,196q-9.42,7.4-19.5,7.39-5.88,0-9.31-2.49a7.78,7.78,0,0,1-3.43-6.61,8.42,8.42,0,0,1,2.87-6.51,10.56,10.56,0,0,1,7.35-2.59,8.44,8.44,0,0,1,4,.91,15.87,15.87,0,0,1,4.2,3.78c2.2,2.66,4.27,4,6.23,4q6.45,0,10.29-10.12t3.85-28.68V89.14c0-3.23-.38-5.5-1.15-6.83a7.93,7.93,0,0,0-4.24-3.19,39.42,39.42,0,0,0-9-1.89c-.74,0-1.12-.64-1.12-1.93s.38-1.92,1.12-1.92q4.69,0,11.13.42,6.16.42,10.43.42t10.5-.42c4.34-.28,8.08-.42,11.2-.42C174.16,73.38,174.53,74,174.53,75.3Z" transform="translate(-17.55 -17.05)" style="fill:#009ca9"/><polygon points="130.59 0 121.48 0 115.03 6.44 115.03 15.56 121.48 22 130.59 22 137.03 15.56 137.03 6.44 130.59 0" style="fill:#009ca9"/><polygon points="242.39 116.11 234.47 118.99 230.91 126.63 233.79 134.55 241.43 138.11 249.35 135.23 252.91 127.59 250.03 119.67 242.39 116.11" style="fill:#009ca9"/><polygon points="122.56 231.9 115.8 237.57 115.03 246.36 120.71 253.13 129.5 253.9 136.27 248.22 137.04 239.43 131.36 232.66 122.56 231.9" style="fill:#009ca9"/><polygon points="4.25 118.31 0 125.66 2.2 133.86 9.55 138.11 17.75 135.91 22 128.56 19.8 120.36 12.45 116.11 4.25 118.31" style="fill:#009ca9"/><path d="M121.13,37c-34,21.74-73.66,23.23-73.66,23.23s-6.62,51.75-19.83,75" transform="translate(-17.55 -17.05)" style="fill:none;stroke:#009ca9;stroke-linecap:round;stroke-linejoin:round;stroke-width:2px"/><polygon points="115 11.61 94.08 16.56 102.65 20.43 103.53 29.79 115 11.61" style="fill:#009ca9"/><path d="M164.35,254.15c35.74-29.7,79.83-34.83,79.83-34.83s-2.89-43.47,10.31-66.75" transform="translate(-17.55 -17.05)" style="fill:none;stroke:#009ca9;stroke-linecap:round;stroke-linejoin:round;stroke-width:2px"/><polygon points="135.95 246.12 156.45 239.66 147.62 236.42 146.06 227.15 135.95 246.12" style="fill:#009ca9"/><path d="M248.35,124.1c-29.69-35.73-25.07-80-25.07-80s-51.75-6.61-75-19.82" transform="translate(-17.55 -17.05)" style="fill:none;stroke:#009ca9;stroke-linecap:round;stroke-linejoin:round;stroke-width:2px"/><polygon points="239.84 117.91 233.37 97.41 230.13 106.24 220.87 107.8 239.84 117.91" style="fill:#009ca9"/><path d="M40.17,164.57C68.77,201.18,65,244,65,244s49,4.57,71.9,18.48" transform="translate(-17.55 -17.05)" style="fill:none;stroke:#009ca9;stroke-linecap:round;stroke-linejoin:round;stroke-width:2px"/><polygon points="13.93 136.38 19.77 157.07 23.27 148.35 32.59 147.06 13.93 136.38" style="fill:#009ca9"/></svg>
